<svg xmlns="http://www.w3.org/2000/svg" width="128" height="128" viewBox="0 0 128 128">
  <g id="Group_595" data-name="Group 595" transform="translate(-1862 997)">
    <g id="Rectangle_720" data-name="Rectangle 720" transform="translate(1862 -997)" fill="#fff" stroke="#707070" stroke-width="0.25">
      <rect width="128" height="128" rx="25" stroke="none"/>
      <rect x="0.125" y="0.125" width="127.75" height="127.75" rx="24.875" fill="none"/>
    </g>
    <g id="b" transform="translate(1870.919 -983.781)">
      <g id="c" transform="translate(-0.003)">
        <g id="Group_532" data-name="Group 532">
          <path id="Path_2267" data-name="Path 2267" d="M110.11,55.129a3.73,3.73,0,0,0-1.048-3.284l-14.7-14.672a5.043,5.043,0,0,0-.989-.989L58.713,1.585c-.044-.048-.081-.1-.125-.14a4.973,4.973,0,0,0-7.01,0c-.044.044-.085.092-.125.14l-34.661,34.6a4.945,4.945,0,0,0-.989.989L1.1,51.845A3.73,3.73,0,0,0,.053,55.129c.857,4.8,5.881,5.859,8.57,3.17l6.183-6.172v45.74a3.623,3.623,0,0,0,3.623,3.623H90.41l1.324.066a3.425,3.425,0,0,0,3.623-3.446V52.128L101.54,58.3c2.692,2.689,7.713,1.629,8.57-3.17ZM85.423,91.56H24.74V42.2L55.083,11.869,85.427,42.2V91.56Z" transform="translate(0.003 0)" fill="#ffce43"/>
          <g id="Group_531" data-name="Group 531" transform="translate(32.358 40.262)">
            <path id="Path_2268" data-name="Path 2268" d="M116.685,116.85a6.211,6.211,0,0,0,2.758-2.336,6.65,6.65,0,0,0,.967-3.634,6.865,6.865,0,0,0-.967-3.693,6.191,6.191,0,0,0-2.758-2.336,10.327,10.327,0,0,0-4.281-.813H105.07v19.953h2.1v-6.65h5.337a13.084,13.084,0,0,0,1.6-.1L118.638,124h2.078l-4.789-6.845c.261-.088.519-.184.761-.294Zm-4.233-1.262H107.17V105.438h5.282a6.768,6.768,0,0,1,4.528,1.331,4.7,4.7,0,0,1,1.548,3.759,4.622,4.622,0,0,1-1.548,3.729A6.774,6.774,0,0,1,112.452,115.589Z" transform="translate(-98.968 -104.036)" fill="#0db201" stroke="#0db201" stroke-miterlimit="10" stroke-width="1"/>
            <path id="Path_2269" data-name="Path 2269" d="M152.65,105.781h7v18.2h2.1v-18.2h6.65V104.03H152.65Z" transform="translate(-129.048 -104.03)" fill="#0db201" stroke="#0db201" stroke-miterlimit="10" stroke-width="1"/>
            <path id="Path_2270" data-name="Path 2270" d="M100.1,184.42a6.211,6.211,0,0,0,2.758-2.336,6.65,6.65,0,0,0,.967-3.634,6.865,6.865,0,0,0-.967-3.693,6.191,6.191,0,0,0-2.758-2.336,10.327,10.327,0,0,0-4.281-.813H88.48v19.953h2.1v-6.65h5.337a13.081,13.081,0,0,0,1.6-.1l4.531,6.749h2.078l-4.789-6.845a8.152,8.152,0,0,0,.761-.294Zm-4.233-1.262H90.58V173.008h5.282a6.768,6.768,0,0,1,4.528,1.331,4.7,4.7,0,0,1,1.548,3.759,4.621,4.621,0,0,1-1.548,3.729,6.774,6.774,0,0,1-4.528,1.331Z" transform="translate(-88.48 -146.754)" fill="#0db201" stroke="#0db201" stroke-miterlimit="10" stroke-width="1"/>
            <path id="Path_2271" data-name="Path 2271" d="M162.26,171.6l-6.922,17.364L151.274,178.7l-.96-2.42-1.85-4.678h-2.052l2.884,7.235-4.038,10.129L138.382,171.6H136.33l7.948,19.953h1.876l4.1-10.3,4.1,10.3h1.872l7.952-19.953Z" transform="translate(-118.731 -146.748)" fill="#0db201" stroke="#0db201" stroke-miterlimit="10" stroke-width="1"/>
          </g>
        </g>
      </g>
    </g>
  </g>
</svg>
