<svg xmlns="http://www.w3.org/2000/svg" width="31.754" height="47.11" viewBox="0 0 31.754 47.11">
	<g id="under-construction" transform="translate(-11.971 -0.963)">
		<g id="Group_13" data-name="Group 13">
			<path id="Path_1" data-name="Path 1"
				d="M37.391,36.813v.566a1.306,1.306,0,0,1-.765,1.071,4.1,4.1,0,0,1-3.721,0l-4.257-2.458a1.315,1.315,0,0,1-.776-1.085v-.567a1.318,1.318,0,0,0,.776,1.085l4.259,2.458a4.1,4.1,0,0,0,3.721,0A1.3,1.3,0,0,0,37.391,36.813Z"
				fill="#1b2a4f" />
			<g id="Group_1" data-name="Group 1">
				<path id="Path_2" data-name="Path 2"
					d="M36.615,35.727a1.139,1.139,0,0,1,.012,2.156,4.1,4.1,0,0,1-3.721,0l-4.258-2.458a1.139,1.139,0,0,1-.011-2.155,4.1,4.1,0,0,1,3.72,0Z"
					fill="#384e85" />
			</g>
			<g id="Group_4" data-name="Group 4">
				<g id="Group_2" data-name="Group 2">
					<path id="Path_3" data-name="Path 3" d="M34.947,32.528l.85-.494-.009,4.281-.85.494Z"
						fill="#1b2a4f" />
				</g>
				<g id="Group_3" data-name="Group 3">
					<path id="Path_4" data-name="Path 4" d="M34.947,32.528l-.009,4.281-4.323-2.5.009-4.281Z"
						fill="#2e4277" />
				</g>
			</g>
			<g id="Group_12" data-name="Group 12">
				<g id="Group_11" data-name="Group 11">
					<g id="Group_10" data-name="Group 10">
						<g id="Group_9" data-name="Group 9">
							<g id="Group_8" data-name="Group 8">
								<g id="Group_5" data-name="Group 5">
									<path id="Path_5" data-name="Path 5"
										d="M42.952,37.189l0,1.575c0,.5-.35.694-.781.445l-17.142-9.9a1.705,1.705,0,0,1-.776-1.344l0-1.575Z"
										fill="#6bb5fb" />
								</g>
								<g id="Group_7" data-name="Group 7">
									<path id="Path_6" data-name="Path 6"
										d="M42.209,24.888a1.711,1.711,0,0,1,.776,1.344l-.033,10.958-18.7-10.8.033-10.958c0-.492.35-.694.781-.445Z"
										fill="#1b2a4f" />
									<g id="Group_6" data-name="Group 6">
										<path id="Path_7" data-name="Path 7"
											d="M42.449,25.642l-.027,11.24L24.788,26.7l.032-11.235Z" fill="#fff" />
									</g>
								</g>
							</g>
						</g>
					</g>
				</g>
			</g>
		</g>
		<g id="Group_85" data-name="Group 85">
			<g id="Group_20" data-name="Group 20">
				<g id="Group_19" data-name="Group 19">
					<g id="Group_14" data-name="Group 14">
						<path id="Path_8" data-name="Path 8"
							d="M40.964,45.167a.966.966,0,0,1-.436.755l-.529.3L22.211,35.889l.529-.3a.952.952,0,0,0,.436-.755.3.3,0,0,0-.126-.278L40.838,44.89A.3.3,0,0,1,40.964,45.167Z"
							fill="#6bb5fb" />
					</g>
					<g id="Group_15" data-name="Group 15">
						<path id="Path_9" data-name="Path 9" d="M40,46.474,22.213,36.138V35.89L40,46.227Z"
							fill="#4466fb" />
					</g>
					<g id="Group_16" data-name="Group 16">
						<path id="Path_10" data-name="Path 10" d="M35.065,48.072,17.278,37.736v-.247L35.064,47.826Z"
							fill="#4466fb" />
					</g>
					<g id="Group_17" data-name="Group 17">
						<path id="Path_11" data-name="Path 11"
							d="M40.99,44.628a.452.452,0,0,0-.465.045l-5.461,3.151L17.276,37.487l5.461-3.151a.452.452,0,0,1,.465-.045Z"
							fill="#6bb5fb" />
					</g>
					<g id="Group_18" data-name="Group 18">
						<path id="Path_12" data-name="Path 12"
							d="M40.525,44.672c.36-.208.653-.041.654.372a1.433,1.433,0,0,1-.649,1.125l-.53.306v-.247l.53-.306a.96.96,0,0,0,.436-.754c0-.276-.2-.388-.438-.249l-5.461,3.154v-.247Z"
							fill="#3955d1" />
					</g>
				</g>
			</g>
			<g id="Group_84" data-name="Group 84">
				<g id="Group_21" data-name="Group 21">
					<path id="Path_13" data-name="Path 13" d="M23.567,35.331l-.458.266-.778-.449.458-.266Z"
						fill="#2e4277" />
				</g>
				<g id="Group_22" data-name="Group 22">
					<path id="Path_14" data-name="Path 14" d="M24.615,35.936l-.458.266-.778-.449.458-.266Z"
						fill="#2e4277" />
				</g>
				<g id="Group_23" data-name="Group 23">
					<path id="Path_15" data-name="Path 15" d="M25.662,36.541l-.458.266-.778-.449.458-.266Z"
						fill="#2e4277" />
				</g>
				<g id="Group_24" data-name="Group 24">
					<path id="Path_16" data-name="Path 16" d="M26.709,37.145l-.458.266-.782-.451.458-.266Z"
						fill="#2e4277" />
				</g>
				<g id="Group_25" data-name="Group 25">
					<path id="Path_17" data-name="Path 17" d="M23.294,35.944,22.5,36.4l-1.168-.675.789-.459Z"
						fill="#2e4277" />
				</g>
				<g id="Group_26" data-name="Group 26">
					<path id="Path_18" data-name="Path 18" d="M24.341,36.548l-.789.459-.782-.451.789-.459Z"
						fill="#2e4277" />
				</g>
				<g id="Group_27" data-name="Group 27">
					<path id="Path_19" data-name="Path 19" d="M25.388,37.153l-.789.459-.782-.451.789-.459Z"
						fill="#2e4277" />
				</g>
				<g id="Group_28" data-name="Group 28">
					<path id="Path_20" data-name="Path 20" d="M26.435,37.757l-.789.459-.782-.451.789-.459Z"
						fill="#2e4277" />
				</g>
				<g id="Group_29" data-name="Group 29">
					<path id="Path_21" data-name="Path 21" d="M27.757,37.75l-.458.266-.782-.451.458-.266Z"
						fill="#2e4277" />
				</g>
				<g id="Group_30" data-name="Group 30">
					<path id="Path_22" data-name="Path 22" d="M27.483,38.362l-.789.459-.782-.451.789-.459Z"
						fill="#2e4277" />
				</g>
				<g id="Group_31" data-name="Group 31">
					<path id="Path_23" data-name="Path 23" d="M22.954,36.9l-.787.457-1.825-1.053.787-.458Z"
						fill="#2e4277" />
				</g>
				<g id="Group_32" data-name="Group 32">
					<path id="Path_24" data-name="Path 24" d="M24,37.506l-.787.458-.782-.451.787-.458Z"
						fill="#2e4277" />
				</g>
				<g id="Group_33" data-name="Group 33">
					<path id="Path_25" data-name="Path 25" d="M25.048,38.111l-.787.458-.782-.451.787-.457Z"
						fill="#2e4277" />
				</g>
				<g id="Group_34" data-name="Group 34">
					<path id="Path_26" data-name="Path 26" d="M26.1,38.715l-.787.458-.782-.451.787-.458Z"
						fill="#2e4277" />
				</g>
				<g id="Group_35" data-name="Group 35">
					<path id="Path_27" data-name="Path 27" d="M22.225,37.632l-.789.459-2.09-1.207.789-.459Z"
						fill="#2e4277" />
				</g>
				<g id="Group_36" data-name="Group 36">
					<path id="Path_28" data-name="Path 28" d="M23.273,38.237l-.789.459-.778-.449.789-.459Z"
						fill="#2e4277" />
				</g>
				<g id="Group_37" data-name="Group 37">
					<path id="Path_29" data-name="Path 29" d="M24.269,38.812l-.789.459L22.7,38.82l.789-.459Z"
						fill="#2e4277" />
				</g>
				<g id="Group_38" data-name="Group 38">
					<path id="Path_30" data-name="Path 30" d="M25.261,39.385l-.789.459-.78-.45.789-.459Z"
						fill="#2e4277" />
				</g>
				<g id="Group_39" data-name="Group 39">
					<path id="Path_31" data-name="Path 31" d="M28.8,38.355l-.458.266-.782-.451.458-.266Z"
						fill="#2e4277" />
				</g>
				<g id="Group_40" data-name="Group 40">
					<path id="Path_32" data-name="Path 32" d="M28.53,38.967l-.789.459-.782-.451.789-.459Z"
						fill="#2e4277" />
				</g>
				<g id="Group_41" data-name="Group 41">
					<path id="Path_33" data-name="Path 33" d="M27.143,39.32l-.787.458-.782-.451.787-.458Z"
						fill="#2e4277" />
				</g>
				<g id="Group_42" data-name="Group 42">
					<path id="Path_34" data-name="Path 34" d="M26.255,39.959l-.789.459-.782-.451.789-.459Z"
						fill="#2e4277" />
				</g>
				<g id="Group_43" data-name="Group 43">
					<path id="Path_35" data-name="Path 35" d="M29.851,38.959l-.458.266-.782-.451.458-.266Z"
						fill="#2e4277" />
				</g>
				<g id="Group_44" data-name="Group 44">
					<path id="Path_36" data-name="Path 36" d="M30.9,39.564l-.458.266-.782-.451.458-.266Z"
						fill="#2e4277" />
				</g>
				<g id="Group_45" data-name="Group 45">
					<path id="Path_37" data-name="Path 37" d="M31.946,40.169l-.458.266-.782-.451.458-.266Z"
						fill="#2e4277" />
				</g>
				<g id="Group_46" data-name="Group 46">
					<path id="Path_38" data-name="Path 38" d="M32.993,40.773l-.458.266-.782-.451.458-.266Z"
						fill="#2e4277" />
				</g>
				<g id="Group_47" data-name="Group 47">
					<path id="Path_39" data-name="Path 39" d="M34.041,41.378l-.458.266-.782-.451.458-.266Z"
						fill="#2e4277" />
				</g>
				<g id="Group_48" data-name="Group 48">
					<path id="Path_40" data-name="Path 40" d="M29.577,39.571l-.789.459-.782-.451.789-.459Z"
						fill="#2e4277" />
				</g>
				<g id="Group_49" data-name="Group 49">
					<path id="Path_41" data-name="Path 41" d="M30.625,40.176l-.789.459-.782-.451.789-.459Z"
						fill="#2e4277" />
				</g>
				<g id="Group_50" data-name="Group 50">
					<path id="Path_42" data-name="Path 42" d="M33.376,41.764l-.789.459L30.1,40.788l.789-.459Z"
						fill="#2e4277" />
				</g>
				<g id="Group_51" data-name="Group 51">
					<path id="Path_43" data-name="Path 43" d="M28.19,39.925l-.787.457-.782-.451.787-.458Z"
						fill="#2e4277" />
				</g>
				<g id="Group_52" data-name="Group 52">
					<path id="Path_44" data-name="Path 44" d="M29.238,40.529l-.787.458-.782-.451.787-.458Z"
						fill="#2e4277" />
				</g>
				<g id="Group_53" data-name="Group 53">
					<path id="Path_45" data-name="Path 45" d="M30.285,41.134l-.787.458-.782-.451.787-.457Z"
						fill="#2e4277" />
				</g>
				<g id="Group_54" data-name="Group 54">
					<path id="Path_46" data-name="Path 46" d="M32.38,42.343l-.787.458-1.829-1.056.787-.458Z"
						fill="#2e4277" />
				</g>
				<g id="Group_55" data-name="Group 55">
					<path id="Path_47" data-name="Path 47" d="M30.338,42.316l-.789.459-.782-.451.789-.459Z"
						fill="#2e4277" />
				</g>
				<g id="Group_56" data-name="Group 56">
					<path id="Path_48" data-name="Path 48" d="M36.341,42.706l-.458.266-.782-.451.458-.266Z"
						fill="#2e4277" />
				</g>
				<g id="Group_57" data-name="Group 57">
					<path id="Path_49" data-name="Path 49" d="M35.676,43.093l-.789.459-.782-.451.789-.459Z"
						fill="#2e4277" />
				</g>
				<g id="Group_58" data-name="Group 58">
					<path id="Path_50" data-name="Path 50" d="M34.68,43.672l-.787.458-.782-.451.787-.458Z"
						fill="#2e4277" />
				</g>
				<g id="Group_59" data-name="Group 59">
					<path id="Path_51" data-name="Path 51" d="M33.686,44.249l-.789.459-.782-.451L32.9,43.8Z"
						fill="#2e4277" />
				</g>
				<g id="Group_60" data-name="Group 60">
					<path id="Path_52" data-name="Path 52" d="M37.389,43.311l-.458.266-.782-.451.458-.266Z"
						fill="#2e4277" />
				</g>
				<g id="Group_61" data-name="Group 61">
					<path id="Path_53" data-name="Path 53" d="M36.724,43.7l-.789.459-.782-.451.789-.459Z"
						fill="#2e4277" />
				</g>
				<g id="Group_62" data-name="Group 62">
					<path id="Path_54" data-name="Path 54" d="M35.728,44.276l-.787.458-.782-.451.787-.457Z"
						fill="#2e4277" />
				</g>
				<g id="Group_63" data-name="Group 63">
					<path id="Path_55" data-name="Path 55" d="M34.734,44.854l-.789.459-.782-.451.789-.459Z"
						fill="#2e4277" />
				</g>
				<g id="Group_64" data-name="Group 64">
					<path id="Path_56" data-name="Path 56" d="M33.737,45.433l-.789.459-1.829-1.056.789-.459Z"
						fill="#2e4277" />
				</g>
				<g id="Group_65" data-name="Group 65">
					<path id="Path_57" data-name="Path 57" d="M38.432,43.913l-.458.266L37.2,43.73l.458-.266Z"
						fill="#2e4277" />
				</g>
				<g id="Group_66" data-name="Group 66">
					<path id="Path_58" data-name="Path 58" d="M39.479,44.518l-.458.266-.778-.449.458-.266Z"
						fill="#2e4277" />
				</g>
				<g id="Group_67" data-name="Group 67">
					<path id="Path_59" data-name="Path 59" d="M27.249,40.533l-.789.459-.782-.451.789-.459Z"
						fill="#2e4277" />
				</g>
				<g id="Group_68" data-name="Group 68">
					<path id="Path_60" data-name="Path 60" d="M28.244,41.107l-.789.459-.782-.451.789-.459Z"
						fill="#2e4277" />
				</g>
				<g id="Group_69" data-name="Group 69">
					<path id="Path_61" data-name="Path 61" d="M19.916,37.453l-.789.459-.782-.451L19.135,37Z"
						fill="#2e4277" />
				</g>
				<g id="Group_70" data-name="Group 70">
					<path id="Path_62" data-name="Path 62" d="M20.963,38.058l-.789.459-.782-.451.789-.459Z"
						fill="#2e4277" />
				</g>
				<g id="Group_71" data-name="Group 71">
					<path id="Path_63" data-name="Path 63" d="M22.011,38.663l-.789.459-.782-.451.789-.459Z"
						fill="#2e4277" />
				</g>
				<g id="Group_72" data-name="Group 72">
					<path id="Path_64" data-name="Path 64" d="M26.245,41.107l-.789.459-3.968-2.291.789-.459Z"
						fill="#2e4277" />
				</g>
				<g id="Group_73" data-name="Group 73">
					<path id="Path_65" data-name="Path 65" d="M27.247,41.686l-.789.459-.782-.451.789-.459Z"
						fill="#2e4277" />
				</g>
				<g id="Group_74" data-name="Group 74">
					<path id="Path_66" data-name="Path 66" d="M28.295,42.291l-.789.459-.782-.451.789-.459Z"
						fill="#2e4277" />
				</g>
				<g id="Group_75" data-name="Group 75">
					<path id="Path_67" data-name="Path 67" d="M29.342,42.9l-.789.459-.782-.451.789-.459Z"
						fill="#2e4277" />
				</g>
				<g id="Group_76" data-name="Group 76">
					<path id="Path_68" data-name="Path 68" d="M30.389,43.5l-.789.459-.782-.451.789-.459Z"
						fill="#2e4277" />
				</g>
				<g id="Group_77" data-name="Group 77">
					<path id="Path_69" data-name="Path 69" d="M37.767,44.3l-.789.459-.778-.449.789-.459Z"
						fill="#2e4277" />
				</g>
				<g id="Group_78" data-name="Group 78">
					<path id="Path_70" data-name="Path 70" d="M36.771,44.879l-.787.457-.778-.449.787-.458Z"
						fill="#2e4277" />
				</g>
				<g id="Group_79" data-name="Group 79">
					<path id="Path_71" data-name="Path 71" d="M35.777,45.456l-.789.459-.778-.449L35,45.007Z"
						fill="#2e4277" />
				</g>
				<g id="Group_80" data-name="Group 80">
					<path id="Path_72" data-name="Path 72" d="M34.78,46.035l-.789.459-.778-.449L34,45.586Z"
						fill="#2e4277" />
				</g>
				<g id="Group_81" data-name="Group 81">
					<path id="Path_73" data-name="Path 73" d="M38.814,44.9l-.789.459-.778-.449.789-.459Z"
						fill="#2e4277" />
				</g>
				<g id="Group_82" data-name="Group 82">
					<path id="Path_74" data-name="Path 74" d="M37.818,45.483l-.787.458-.778-.449.787-.457Z"
						fill="#2e4277" />
				</g>
				<g id="Group_83" data-name="Group 83">
					<path id="Path_75" data-name="Path 75" d="M36.824,46.061,35.038,47.1l-.778-.449,1.785-1.038Z"
						fill="#2e4277" />
				</g>
			</g>
		</g>
		<g id="Group_86" data-name="Group 86">
			<path id="Path_76" data-name="Path 76"
				d="M43.725,25.8a1.713,1.713,0,0,0-.77-1.344l-17.144-9.9a.57.57,0,0,0-.559-.06l-.74.438a.548.548,0,0,1,.559.053l17.136,9.9a1.721,1.721,0,0,1,.778,1.344l-.033,10.958.74-.427Z"
				fill="#384e85" />
			<path id="Path_77" data-name="Path 77"
				d="M42.952,37.189l0,1.573a.545.545,0,0,1-.226.506l.747-.438a.536.536,0,0,0,.219-.5l0-1.57Z"
				fill="#3955d1" />
		</g>
		<g id="Group_87" data-name="Group 87">
			<path id="Path_78" data-name="Path 78"
				d="M32.78,31.974a1.126,1.126,0,0,1,.513.883c0,.325-.233.457-.516.294a1.126,1.126,0,0,1-.508-.886C32.269,31.941,32.5,31.811,32.78,31.974Z"
				fill="#4466fb" />
		</g>
		<g id="Group_139" data-name="Group 139">
			<g id="Group_132" data-name="Group 132">
				<g id="Group_131" data-name="Group 131">
					<g id="Group_92" data-name="Group 92">
						<g id="Group_91" data-name="Group 91">
							<g id="Group_88" data-name="Group 88">
								<path id="Path_79" data-name="Path 79" d="M20.089,30.6l0,1.176-4.042,2.349,0-1.175Z"
									fill="#aabafd" />
							</g>
							<g id="Group_89" data-name="Group 89">
								<path id="Path_80" data-name="Path 80" d="M16.046,32.953l0,1.175-4.073-2.351,0-1.176Z"
									fill="#b7c5fd" />
							</g>
							<g id="Group_90" data-name="Group 90">
								<path id="Path_81" data-name="Path 81"
									d="M20.089,30.6l-4.043,2.349L11.974,30.6l4.042-2.349Z" fill="#d9ddf6" />
							</g>
						</g>
					</g>
					<g id="Group_130" data-name="Group 130">
						<path id="Path_82" data-name="Path 82"
							d="M15.758,19.7l.06.074.357-.2L14.725,17.8l.965-.122.037-.021.061.074.357-.2L14.689,15.75l1.008-.128.037-.021.06.074.357-.2L14.695,13.7l1.008-.128.037-.021.061.074.357-.2L14.7,11.642l1.008-.128.037-.021.06.074.357-.2L14.707,9.587l1.008-.128.037-.021.061.074.357-.2L14.714,7.533l1.008-.128.037-.021.06.074.357-.2-1.555-1.9-.357.2,1.393,1.707-1.105.14-.357.2.254-.032-.156.086,1.359,1.664-1.105.14-.357.2.254-.032-.156.086,1.358,1.664-1.105.14-.357.2.254-.032-.156.086,1.359,1.664-1.105.14-.357.2.254-.032-.156.086,1.358,1.664-1.105.14-.357.2.254-.032-.156.086,1.359,1.664-1.07.136-.357.2.087-.011-.023.013,1.393,1.707-1.105.14-.357.2.254-.032-.156.086,1.359,1.664-1.105.14-.357.2.254-.032-.156.086,1.358,1.664-1.105.14-.357.2.254-.032-.156.086,1.359,1.664-1.105.14-.357.2.254-.032-.156.086,1.358,1.664-1.105.14-.357.2.254-.032-.156.086,1.359,1.664-1.07.136-.357.2,1.49-.189.037-.021.061.074.357-.2-1.455-1.783,1.008-.128.037-.021.06.074.357-.2-1.456-1.783L15.7,25.88l.037-.021.061.074.357-.2L14.7,23.954l1.008-.128.037-.021.06.074.357-.2L14.707,21.9l1.008-.128.037-.021.061.074.357-.2-1.456-1.783,1.008-.128Z"
							fill="#384e85" />
						<path id="Path_83" data-name="Path 83"
							d="M17.891,28.128l-.255-.032.157.086-1.359,1.664,1.07.136.357.2-1.49-.189-.037-.021-.061.074-.357-.2,1.456-1.784-1.007-.128-.037-.021-.06.074-.358-.2,1.457-1.783-1.008-.128-.036-.021-.061.074-.357-.2,1.455-1.783-1.007-.128-.037-.021-.06.074-.357-.2L17.354,21.9l-1.007-.128-.037-.021-.061.074-.357-.2,1.456-1.784-1.008-.128L16.3,19.7l-.06.074-.358-.2L17.336,17.8l-.965-.122-.037-.021-.061.074-.357-.2,1.456-1.783-1.007-.128-.037-.021-.06.074-.358-.2L17.367,13.7l-1.008-.128-.036-.021-.061.074-.357-.2,1.455-1.784-1.007-.128-.037-.02-.06.074-.357-.2,1.456-1.784L16.347,9.46,16.31,9.44l-.061.073-.357-.2,1.456-1.783L16.34,7.406,16.3,7.385l-.06.074-.358-.2,1.555-1.9.357.2L16.4,7.262l1.105.14.356.2-.254-.032.157.086L16.409,9.316l1.105.14.358.2-.255-.032.156.086-1.358,1.664,1.105.14.357.2-.254-.032.156.086-1.358,1.664,1.105.139.357.2-.254-.032.156.086-1.358,1.664,1.105.139.357.2-.255-.032.157.085-1.359,1.664,1.07.136.357.2-.086-.011.023.013L16.4,19.574l1.105.14.356.2-.254-.032.157.086-1.359,1.664,1.105.139.358.2-.255-.032.156.086-1.358,1.664,1.105.139.357.2-.254-.032.156.085-1.358,1.664,1.105.14.357.2-.254-.032.156.086-1.358,1.664,1.105.14Z"
							fill="#384e85" />
						<g id="Group_101" data-name="Group 101">
							<g id="Group_96" data-name="Group 96">
								<g id="Group_95" data-name="Group 95">
									<g id="Group_94" data-name="Group 94">
										<g id="Group_93" data-name="Group 93">
											<path id="Path_84" data-name="Path 84"
												d="M15.819,19.771l-1.525.194,1.518,1.861-1.525.194,1.519,1.86-1.525.194,1.519,1.86-1.525.194,1.519,1.86-1.525.194,1.519,1.861-1.561.2-.026-.062,1.49-.189L14.17,28.128l1.526-.194-1.519-1.861L15.7,25.88,14.183,24.02l1.526-.194-1.519-1.861,1.525-.194L14.2,19.911l1.525-.194-1.463-1.793-.031,0-.026-.062,1.49-.189L14.17,15.816l1.526-.194-1.519-1.861,1.526-.194-1.519-1.861,1.526-.194L14.189,9.653l1.525-.194L14.2,7.6l1.525-.194L14.238,5.588l.026-.033,1.555,1.9-1.525.194,1.518,1.86-1.525.194,1.519,1.861-1.525.194L15.8,13.622l-1.525.194,1.519,1.86-1.525.194,1.519,1.86-1.483.188Z"
												fill="#1b2a4f" />
										</g>
									</g>
								</g>
							</g>
							<g id="Group_100" data-name="Group 100">
								<g id="Group_99" data-name="Group 99">
									<g id="Group_98" data-name="Group 98">
										<g id="Group_97" data-name="Group 97">
											<path id="Path_85" data-name="Path 85"
												d="M17.891,28.128l-1.519,1.861,1.49.189-.026.062-1.561-.2,1.519-1.861-1.526-.194,1.52-1.86-1.525-.194,1.518-1.86-1.525-.194,1.518-1.86-1.525-.194,1.519-1.861-1.525-.194,1.514-1.853-1.483-.188,1.519-1.86-1.526-.194,1.52-1.86-1.525-.194,1.518-1.861-1.525-.194,1.518-1.861-1.525-.194,1.519-1.86-1.525-.194,1.555-1.9.027.033L16.34,7.406l1.526.194-1.519,1.86,1.525.194-1.519,1.861,1.525.194-1.519,1.861,1.526.194-1.519,1.861,1.526.194-1.519,1.861,1.49.189-.026.062-.03,0L16.34,19.717l1.526.194-1.519,1.861,1.525.194-1.519,1.861,1.525.194L16.359,25.88l1.526.193-1.519,1.861Z"
												fill="#1b2a4f" />
										</g>
									</g>
								</g>
							</g>
						</g>
						<g id="Group_113" data-name="Group 113">
							<g id="Group_112" data-name="Group 112">
								<g id="Group_104" data-name="Group 104">
									<g id="Group_103" data-name="Group 103">
										<g id="Group_102" data-name="Group 102">
											<path id="Path_86" data-name="Path 86"
												d="M15.742,17.535l.289-.136.29.135-.289.136Z" fill="#384e85" />
										</g>
									</g>
								</g>
								<g id="Group_108" data-name="Group 108">
									<g id="Group_107" data-name="Group 107">
										<g id="Group_105" data-name="Group 105">
											<path id="Path_87" data-name="Path 87"
												d="M17.456,16.728l.289-.136.29.136-.289.136Z" fill="#384e85" />
										</g>
										<g id="Group_106" data-name="Group 106">
											<path id="Path_88" data-name="Path 88"
												d="M17.746,18.134V30.816l-.292-.135V18Z" fill="#2e4277" />
										</g>
									</g>
								</g>
								<g id="Group_111" data-name="Group 111">
									<g id="Group_110" data-name="Group 110">
										<g id="Group_109" data-name="Group 109">
											<path id="Path_89" data-name="Path 89"
												d="M14.6,16.728l-.289-.136-.29.136.289.136Z" fill="#384e85" />
										</g>
									</g>
								</g>
							</g>
						</g>
						<g id="Group_129" data-name="Group 129">
							<g id="Group_118" data-name="Group 118">
								<g id="Group_117" data-name="Group 117">
									<g id="Group_114" data-name="Group 114">
										<path id="Path_90" data-name="Path 90" d="M16.322,5.223V31.695l-.292.141V5.358Z"
											fill="#1b2a4f" />
									</g>
									<g id="Group_115" data-name="Group 115">
										<path id="Path_91" data-name="Path 91"
											d="M15.742,5.223l.289-.136.29.136-.289.136Z" fill="#384e85" />
									</g>
									<g id="Group_116" data-name="Group 116">
										<path id="Path_92" data-name="Path 92"
											d="M16.03,5.358V31.836l-.292-.141.007-26.472Z" fill="#2e4277" />
									</g>
								</g>
							</g>
							<g id="Group_123" data-name="Group 123">
								<g id="Group_122" data-name="Group 122">
									<g id="Group_119" data-name="Group 119">
										<path id="Path_93" data-name="Path 93" d="M18.038,4.418V30.681l-.292.135V4.553Z"
											fill="#1b2a4f" />
									</g>
									<g id="Group_120" data-name="Group 120">
										<path id="Path_94" data-name="Path 94"
											d="M17.456,4.416l.289-.136.29.136-.289.136Z" fill="#384e85" />
									</g>
									<g id="Group_121" data-name="Group 121">
										<path id="Path_95" data-name="Path 95" d="M17.746,4.553V18.134L17.454,18V4.418Z"
											fill="#2e4277" />
									</g>
								</g>
							</g>
							<g id="Group_128" data-name="Group 128">
								<g id="Group_127" data-name="Group 127">
									<g id="Group_124" data-name="Group 124">
										<path id="Path_96" data-name="Path 96"
											d="M14.314,4.553V30.816l-.285-.135V4.418Z" fill="#1b2a4f" />
									</g>
									<g id="Group_125" data-name="Group 125">
										<path id="Path_97" data-name="Path 97"
											d="M14.6,4.416l-.289-.136-.29.136.289.136Z" fill="#384e85" />
									</g>
									<g id="Group_126" data-name="Group 126">
										<path id="Path_98" data-name="Path 98" d="M14.606,4.418V30.681l-.292.135V4.553Z"
											fill="#2e4277" />
									</g>
								</g>
							</g>
						</g>
					</g>
				</g>
			</g>
			<g id="Group_138" data-name="Group 138">
				<g id="Group_137" data-name="Group 137">
					<g id="Group_136" data-name="Group 136">
						<g id="Group_133" data-name="Group 133">
							<path id="Path_99" data-name="Path 99" d="M18.505,2.4l0,2.209L16.038,6.038l0-2.209Z"
								fill="#aabafd" />
						</g>
						<g id="Group_134" data-name="Group 134">
							<path id="Path_100" data-name="Path 100" d="M16.04,3.829l0,2.209L13.554,4.6l0-2.209Z"
								fill="#b7c5fd" />
						</g>
						<g id="Group_135" data-name="Group 135">
							<path id="Path_101" data-name="Path 101" d="M18.505,2.4,16.04,3.829,13.556,2.4,16.021.963Z"
								fill="#d9ddf6" />
						</g>
					</g>
				</g>
			</g>
		</g>
		<g id="Group_154" data-name="Group 154">
			<g id="Group_145" data-name="Group 145">
				<g id="Group_142" data-name="Group 142">
					<g id="Group_141" data-name="Group 141">
						<g id="Group_140" data-name="Group 140">
							<path id="Path_102" data-name="Path 102"
								d="M32.78,15.559l.354.206a.7.7,0,0,1,.574.037l-.354-.206A.7.7,0,0,0,32.78,15.559Z"
								fill="#384e85" />
							<path id="Path_103" data-name="Path 103"
								d="M32.6,16.652l-.008-3.3.535-.309-.354-.205-.535.309.008,3.3Z" fill="#384e85" />
						</g>
					</g>
				</g>
				<g id="Group_143" data-name="Group 143">
					<path id="Path_104" data-name="Path 104"
						d="M33.519,16.867a.452.452,0,0,0-.189-.414l-.354-.206a.452.452,0,0,1,.189.414,1.394,1.394,0,0,1-.317.81,1.337,1.337,0,0,1,.273.314A1.437,1.437,0,0,0,33.519,16.867Z"
						fill="#d9ddf6" />
				</g>
				<g id="Group_144" data-name="Group 144">
					<path id="Path_105" data-name="Path 105"
						d="M34.052,16.559c0-.642-.394-.958-.918-.794l-.007-2.719-.535.309.008,3.3.268-.154c.357-.206.65-.041.651.369a1.436,1.436,0,0,1-.4.918,1.343,1.343,0,0,1,.18.473A2.617,2.617,0,0,0,34.052,16.559Z"
						fill="#1b2a4f" />
				</g>
			</g>
			<g id="Group_153" data-name="Group 153">
				<g id="Group_152" data-name="Group 152">
					<g id="Group_146" data-name="Group 146">
						<path id="Path_106" data-name="Path 106"
							d="M33.613,18.565l-.467.273a.445.445,0,0,1-.447-.047,1.362,1.362,0,0,1-.62-1.087.425.425,0,0,1,.18-.394l.467-.274a.425.425,0,0,0-.18.394,1.386,1.386,0,0,0,.627,1.087A.433.433,0,0,0,33.613,18.565Z"
							fill="#d9ddf6" />
						<path id="Path_107" data-name="Path 107"
							d="M37.355,19.739l-.013,5.91a.661.661,0,0,1-.28.607l-.467.274a.658.658,0,0,0,.273-.607l.02-5.91a2.1,2.1,0,0,0-.947-1.641l-6.47-3.735a.677.677,0,0,0-.674-.06l.474-.274a.665.665,0,0,1,.667.06l6.47,3.735A2.1,2.1,0,0,1,37.355,19.739Z"
							fill="#d9ddf6" />
					</g>
					<g id="Group_147" data-name="Group 147">
						<path id="Path_108" data-name="Path 108"
							d="M35.939,18.374a2.081,2.081,0,0,1,.947,1.64l-.017,5.907c0,.607-.425.848-.953.543l-6.469-3.735a2.08,2.08,0,0,1-.942-1.637l.017-5.907c0-.6.429-.845.949-.545Zm-3.239.419c.349.2.627.034.628-.363a1.362,1.362,0,0,0-.624-1.076c-.345-.2-.627-.043-.628.353a1.387,1.387,0,0,0,.624,1.086"
							fill="#b7c5fd" />
					</g>
					<g id="Group_151" data-name="Group 151">
						<g id="Group_148" data-name="Group 148">
							<path id="Path_109" data-name="Path 109"
								d="M31.2,19.876l0,.6-.95.059.946,1.167,0,.607-1.433-1.766,0-.561Z" fill="#384e85" />
						</g>
						<g id="Group_149" data-name="Group 149">
							<path id="Path_110" data-name="Path 110"
								d="M33.444,21.173l1.433,1.766V23.5l-1.438.109,0-.607.95-.073-.946-1.154Z"
								fill="#384e85" />
						</g>
						<g id="Group_150" data-name="Group 150">
							<path id="Path_111" data-name="Path 111" d="M33.194,20.366l-1.25,3.043-.5-.291,1.25-3.043Z"
								fill="#384e85" />
						</g>
					</g>
				</g>
			</g>
			<path id="Path_112" data-name="Path 112"
				d="M32.849,17.471a1.21,1.21,0,0,1-.33.31.6.6,0,0,1-.268.085l.013-.013-.354-.206-.5.506a.639.639,0,0,0,.267.321l.354.206a.639.639,0,0,1-.267-.321l.442-.448.2.119a.46.46,0,0,0,.462-.043,1.115,1.115,0,0,0,.249-.2A1.335,1.335,0,0,0,32.849,17.471Z"
				fill="#384e85" />
			<path id="Path_113" data-name="Path 113"
				d="M32.872,17.987c-.268.154-.513.1-.609-.134l-.5.506c.175.427.619.524,1.11.241a2.013,2.013,0,0,0,.427-.342,1.343,1.343,0,0,0-.18-.473A1.12,1.12,0,0,1,32.872,17.987Z"
				fill="#1b2a4f" />
		</g>
		<g id="Group_158" data-name="Group 158">
			<g id="Group_155" data-name="Group 155">
				<path id="Path_114" data-name="Path 114" d="M33.811,13.875l1.136-.66,0,1.131-1.136.66Z"
					fill="#1b2a4f" />
			</g>
			<g id="Group_156" data-name="Group 156">
				<path id="Path_115" data-name="Path 115" d="M16.722,4.009l1.136-.66,17.089,9.866-1.136.66Z"
					fill="#384e85" />
			</g>
			<g id="Group_157" data-name="Group 157">
				<path id="Path_116" data-name="Path 116" d="M33.811,13.875l0,1.131L16.719,5.14l0-1.131Z"
					fill="#2e4277" />
			</g>
		</g>
		<g id="Group_162" data-name="Group 162">
			<g id="Group_159" data-name="Group 159">
				<path id="Path_117" data-name="Path 117"
					d="M38.675,30.62a.653.653,0,0,1,.3.513l-.007,2.345c0,.189-.134.265-.3.17l-2.04-1.178a.644.644,0,0,1-.292-.511l.007-2.345c0-.189.13-.267.294-.172Z"
					fill="#4466fb" />
			</g>
			<g id="Group_160" data-name="Group 160">
				<path id="Path_118" data-name="Path 118"
					d="M34.315,28.1a.653.653,0,0,1,.3.513L34.6,30.96c0,.189-.134.265-.3.17l-2.04-1.178a.652.652,0,0,1-.292-.511l.007-2.345c0-.189.134-.265.294-.172Z"
					fill="#384e85" />
			</g>
			<g id="Group_161" data-name="Group 161">
				<path id="Path_119" data-name="Path 119"
					d="M29.955,25.585a.653.653,0,0,1,.3.513l-.007,2.345c0,.189-.134.265-.3.17l-2.04-1.178a.644.644,0,0,1-.292-.511l.007-2.345c0-.189.13-.267.294-.172Z"
					fill="#9aadfd" />
			</g>
		</g>
	</g>
</svg>